<svg width="17" height="16" viewBox="0 0 17 16" fill="none" xmlns="http://www.w3.org/2000/svg">
<g id="jia 1">
<path id="Vector" d="M7.86581 9.5625V14.8906C7.86581 15.3048 8.20161 15.6406 8.61581 15.6406C9.03003 15.6406 9.36581 15.3048 9.36581 14.8906V9.5625H14.75C15.1642 9.5625 15.5 9.22672 15.5 8.8125C15.5 8.39828 15.1642 8.0625 14.75 8.0625H9.36581V2.75C9.36581 2.33578 9.03003 2 8.61581 2C8.20159 2 7.86581 2.33578 7.86581 2.75V8.0625H2.45309C2.03887 8.0625 1.70309 8.39828 1.70309 8.8125C1.70309 9.22672 2.03887 9.5625 2.45309 9.5625H7.86581Z" fill="white"/>
</g>
</svg>
