<svg width="24" height="24" viewBox="0 0 24 24" fill="none" xmlns="http://www.w3.org/2000/svg">
<g id="Frame" clip-path="url(#clip0_1402_1551)">
<g id="&#229;&#155;&#190;&#230;&#160;&#135; &#229;&#136;&#134;&#231;&#177;&#187;">
<g id="icon_zhuye 1">
<path id="Vector" d="M18.5 8.63062C19.0062 8.63062 19.4246 9.00681 19.4909 9.49492L19.5 9.63062V20.6306C19.5 21.1369 19.1238 21.5553 18.6357 21.6215L18.5 21.6306H5.50001C4.99376 21.6306 4.57535 21.2544 4.50912 20.7663L4.5 20.6306V9.63062C4.5 9.07834 4.94773 8.63062 5.50001 8.63062C6.00626 8.63062 6.42466 9.00681 6.49088 9.49492L6.50002 9.63062V19.6293H17.5V9.63062C17.5 9.12437 17.8762 8.70597 18.3643 8.63976L18.5 8.63062Z" fill="#333333"/>
<path id="Vector_2" d="M1.50821 11.3626L11.4077 2.46305C11.7574 2.14871 12.2725 2.12392 12.6481 2.38627L12.7564 2.47361L22.35 11.3731C22.7549 11.7487 22.7786 12.3814 22.403 12.7863C22.0587 13.1575 21.4984 13.2084 21.0955 12.9249L20.9898 12.8394L12.0649 4.56142L2.8453 12.8499C2.46882 13.1884 1.90617 13.1883 1.53062 12.8696L1.43308 12.7748C1.09463 12.3983 1.0947 11.8356 1.41341 11.4601L1.50821 11.3626Z" fill="#333333"/>
<path id="Vector_3" d="M12 13.5961C12.5063 13.5961 12.9247 13.9723 12.9909 14.4604L13 14.5961V18.2194C13 18.7717 12.5523 19.2195 12 19.2195C11.4938 19.2195 11.0754 18.8432 11.0091 18.3551L11 18.2194V14.5961C11 14.0438 11.4477 13.5961 12 13.5961Z" fill="url(#paint0_linear_1402_1551)"/>
</g>
</g>
</g>
<defs>
<linearGradient id="paint0_linear_1402_1551" x1="12.9388" y1="13.5961" x2="10.9804" y2="13.6051" gradientUnits="userSpaceOnUse">
<stop stop-color="#165DFF"/>
<stop offset="1" stop-color="#03A5FE"/>
</linearGradient>
<clipPath id="clip0_1402_1551">
<rect width="24" height="24" fill="white"/>
</clipPath>
</defs>
</svg>
