<svg width="24" height="24" viewBox="0 0 24 24" fill="none" xmlns="http://www.w3.org/2000/svg">
<g id="Frame" clip-path="url(#clip0_1416_10587)">
<g id="&#229;&#155;&#190;&#230;&#160;&#135; &#229;&#136;&#134;&#231;&#177;&#187;">
<g id="&#231;&#148;&#187;&#230;&#157;&#191;">
<g id="icon_geren 1">
<path id="Vector" d="M12.1923 0.432861C16.1381 0.432861 19.3368 3.63154 19.3368 7.57731C19.3368 11.5231 16.1381 14.7218 12.1923 14.7218C8.24653 14.7218 5.04785 11.5231 5.04785 7.57734C5.04785 3.63154 8.24653 0.432885 12.1923 0.432885V0.432861ZM12.1923 2.43285C9.35109 2.43285 7.04782 4.73613 7.04782 7.57734C7.04782 10.4185 9.35109 12.7218 12.1923 12.7218C15.0335 12.7218 17.3367 10.4185 17.3367 7.57734C17.3367 4.73613 15.0335 2.43285 12.1923 2.43285Z" fill="#333333"/>
<path id="Vector_2" d="M12.3594 14.8401C12.8656 14.8401 13.284 15.2163 13.3503 15.7044L13.3594 15.8401V18.2692C13.3594 18.8215 12.9117 19.2692 12.3594 19.2692C11.8531 19.2692 11.4347 18.893 11.3685 18.4049L11.3594 18.2692V15.8401C11.3594 15.2878 11.8071 14.8401 12.3594 14.8401Z" fill="url(#paint0_linear_1416_10587)"/>
<path id="Vector_3" d="M8.10811 12.514L9.79606 13.5868L5.94654 19.6413H18.4372L14.7353 13.8174L16.4232 12.7446L21.1012 20.105C21.4994 20.7316 21.0992 21.5397 20.3931 21.6326L20.2572 21.6414H4.12761C3.38518 21.6414 2.91786 20.8702 3.21818 20.2244L3.28362 20.105L8.10811 12.514Z" fill="#333333"/>
</g>
</g>
</g>
</g>
<defs>
<linearGradient id="paint0_linear_1416_10587" x1="13.2982" y1="14.8401" x2="11.3398" y2="14.8515" gradientUnits="userSpaceOnUse">
<stop stop-color="#165DFF"/>
<stop offset="1" stop-color="#03A5FE"/>
</linearGradient>
<clipPath id="clip0_1416_10587">
<rect width="24" height="24" fill="white"/>
</clipPath>
</defs>
</svg>
