<svg width="24" height="24" viewBox="0 0 24 24" fill="none" xmlns="http://www.w3.org/2000/svg">
<g id="Frame" clip-path="url(#clip0_1402_1575)">
<g id="&#229;&#155;&#190;&#230;&#160;&#135; &#229;&#136;&#134;&#231;&#177;&#187;">
<g id="&#231;&#148;&#187;&#230;&#157;&#191;">
<g id="icon_geren 1">
<path id="Vector" d="M12.1925 0.432861C16.1383 0.432861 19.337 3.63154 19.337 7.57731C19.337 11.5231 16.1383 14.7218 12.1925 14.7218C8.24678 14.7218 5.0481 11.5231 5.0481 7.57734C5.0481 3.63154 8.24678 0.432885 12.1925 0.432885V0.432861ZM12.1925 2.43285C9.35134 2.43285 7.04806 4.73613 7.04806 7.57734C7.04806 10.4185 9.35134 12.7218 12.1925 12.7218C15.0338 12.7218 17.337 10.4185 17.337 7.57734C17.337 4.73613 15.0338 2.43285 12.1925 2.43285Z" fill="#86909C"/>
<path id="Vector_2" d="M12.3591 14.8401C12.8654 14.8401 13.2838 15.2163 13.35 15.7044L13.3591 15.8401V18.2692C13.3591 18.8215 12.9114 19.2692 12.3591 19.2692C11.8529 19.2692 11.4345 18.893 11.3683 18.4049L11.3591 18.2692V15.8401C11.3591 15.2878 11.8069 14.8401 12.3591 14.8401Z" fill="#C7C7C7"/>
<path id="Vector_3" d="M8.10811 12.514L9.79606 13.5868L5.94654 19.6413H18.4372L14.7353 13.8174L16.4232 12.7446L21.1012 20.105C21.4994 20.7316 21.0992 21.5397 20.3931 21.6326L20.2572 21.6414H4.12761C3.38518 21.6414 2.91786 20.8702 3.21818 20.2244L3.28362 20.105L8.10811 12.514Z" fill="#86909C"/>
</g>
</g>
</g>
</g>
<defs>
<clipPath id="clip0_1402_1575">
<rect width="24" height="24" fill="white"/>
</clipPath>
</defs>
</svg>
