<svg width="16" height="17" viewBox="0 0 16 17" fill="none" xmlns="http://www.w3.org/2000/svg">
<g id="Frame 1000008656">
<path id="Vector" d="M0 8.5C-1.56548e-08 9.55058 0.206926 10.5909 0.608964 11.5615C1.011 12.5321 1.60028 13.414 2.34315 14.1569C3.08601 14.8997 3.96793 15.489 4.93853 15.891C5.90914 16.2931 6.94942 16.5 8 16.5C9.05057 16.5 10.0909 16.2931 11.0615 15.891C12.0321 15.489 12.914 14.8997 13.6569 14.1569C14.3997 13.414 14.989 12.5321 15.391 11.5615C15.7931 10.5909 16 9.55058 16 8.5C16 7.44943 15.7931 6.40914 15.391 5.43853C14.989 4.46793 14.3997 3.58601 13.6569 2.84315C12.914 2.10028 12.0321 1.511 11.0615 1.10896C10.0909 0.706926 9.05057 0.5 8 0.5C6.94942 0.5 5.90914 0.706926 4.93853 1.10896C3.96793 1.511 3.08601 2.10028 2.34315 2.84315C1.60028 3.58601 1.011 4.46793 0.608964 5.43853C0.206926 6.40914 -1.56548e-08 7.44943 0 8.5Z" fill="#FFF1DC"/>
<path id="Vector_2" d="M8.67604 14.1614H7.45219C7.22881 14.1614 7.01458 14.0726 6.85663 13.9147C6.69867 13.7567 6.60994 13.5425 6.60994 13.3191C6.60994 13.0958 6.69867 12.8815 6.85663 12.7236C7.01458 12.5656 7.22881 12.4769 7.45219 12.4769H8.67604C8.89941 12.4769 9.11364 12.5656 9.2716 12.7236C9.42955 12.8815 9.51828 13.0958 9.51828 13.3191C9.51828 13.5425 9.42955 13.7567 9.2716 13.9147C9.11364 14.0726 8.89941 14.1614 8.67604 14.1614ZM12.125 9.20056H11.7779V6.42214C11.7779 4.37058 10.1152 2.70789 8.06366 2.70789C6.0121 2.70789 4.3494 4.37058 4.3494 6.42214V9.20056H4.00233C3.23186 9.20056 2.60767 9.82475 2.60767 10.5952C2.60767 11.3657 3.23186 11.9899 4.00233 11.9899H12.1259C12.8964 11.9899 13.5206 11.3657 13.5206 10.5952C13.5196 9.82475 12.8955 9.20056 12.125 9.20056ZM6.62811 8.44099C6.62811 8.76081 6.36916 9.01975 6.04935 9.01975C5.72953 9.01975 5.47058 8.76081 5.47058 8.44099V6.0787C5.47058 5.75888 5.72953 5.49994 6.04935 5.49994C6.36916 5.49994 6.62811 5.75888 6.62811 6.0787V8.44099Z" fill="#FC7032"/>
<path id="Vector_3" d="M11.7779 9.20056V6.42214C11.7779 4.37058 10.1152 2.70789 8.06366 2.70789C6.0121 2.70789 4.3494 4.37058 4.3494 6.42214V9.20056H4.00233C3.23186 9.20056 2.60767 9.82475 2.60767 10.5952C2.60767 11.3657 3.23186 11.9899 4.00233 11.9899H9.31567C10.4569 11.3128 11.4035 10.3519 12.0632 9.20056H11.7779ZM6.62811 8.44099C6.62811 8.76081 6.36916 9.01975 6.04935 9.01975C5.72953 9.01975 5.47058 8.76081 5.47058 8.44099V6.0787C5.47058 5.75888 5.72953 5.49994 6.04935 5.49994C6.36916 5.49994 6.62811 5.75888 6.62811 6.0787V8.44099ZM8.34259 12.476H7.45219C7.11965 12.476 6.83345 12.6686 6.69625 12.9475C7.26865 12.8521 7.82016 12.6922 8.34259 12.476Z" fill="#FF7E3E"/>
<path id="Vector_4" d="M2.6377 10.3072C2.86575 10.3281 3.09653 10.339 3.33003 10.339C7.11243 10.339 10.2525 7.59329 10.8667 3.98625C10.1852 3.20306 9.18307 2.70789 8.0637 2.70789C6.01214 2.70789 4.34945 4.37058 4.34945 6.42214V9.20056H4.00237C3.33094 9.20056 2.77035 9.67575 2.6377 10.3072ZM5.47063 6.07779C5.47063 5.75797 5.72957 5.49903 6.04939 5.49903C6.36921 5.49903 6.62815 5.75797 6.62815 6.07779V8.44008C6.62815 8.7599 6.36921 9.01885 6.04939 9.01885C5.72957 9.01885 5.47063 8.7599 5.47063 8.44008V6.07779Z" fill="#FF9552"/>
<path id="Vector_5" d="M5.47055 6.46479V6.07864C5.47055 5.75883 5.72949 5.49988 6.04931 5.49988C6.22466 5.49988 6.38094 5.57802 6.48724 5.70159C7.38855 4.89931 8.09905 3.88625 8.54153 2.74054C8.38525 2.72055 8.22534 2.70874 8.06362 2.70874C6.01206 2.70874 4.34937 4.37143 4.34937 6.42299V7.04718C4.74096 6.88273 5.11529 6.68739 5.47055 6.46479Z" fill="#FFA56A"/>
</g>
</svg>
