<svg width="14" height="14" viewBox="0 0 14 14" fill="none" xmlns="http://www.w3.org/2000/svg">
<g id="&#228;&#188;&#129;&#228;&#184;&#154;&#232;&#174;&#164;&#232;&#175;&#129;  5" clip-path="url(#clip0_1406_9698)">
<path id="Vector" d="M5.90331 7.46295V8.61237H7.68077C8.39391 7.66224 9.58965 7.03744 10.9427 7.03744L11.0418 7.03852L11.0385 2.39558C11.0385 2.39558 9.69091 2.34603 8.1763 1.79987C6.67462 1.25909 5.68463 0.641825 5.5629 0.563186L5.51981 0.536255L5.47888 0.562109C5.43579 0.591194 4.42318 1.23647 2.86548 1.79879C1.35087 2.34495 0 2.39558 0 2.39558V7.95849C0 9.11653 0.317788 10.3101 1.70851 11.4919C2.93873 12.5346 4.92517 13.3824 5.52197 13.3824C5.81282 13.3824 6.68863 13.0743 7.60859 12.6036C7.20736 12.0341 6.99144 11.3547 6.99025 10.6581C6.99025 10.2078 7.08074 9.77688 7.24448 9.37937H2.48521V8.6113H3.49028V6.59254H4.32838V8.61237H5.06306V5.36017H5.90224V6.72396H7.67969V7.46403H5.90331V7.46295ZM6.2071 4.62333H4.82176L2.76206 6.34692L2.1922 5.77167L4.48135 3.84663H6.50118L8.85174 5.78676L8.27541 6.35554L6.2071 4.62333ZM10.9427 7.85507C9.2514 7.85507 7.88221 9.11114 7.88221 10.6602C7.88221 12.2093 9.25355 13.4632 10.9427 13.4632C12.6318 13.4632 14.0042 12.2071 14.0042 10.6591C14.0042 9.11006 12.634 7.85507 10.9427 7.85507ZM12.5478 10.2627L10.8931 11.7816C10.8142 11.8524 10.7115 11.8908 10.6055 11.8894H10.5893C10.4834 11.8903 10.3809 11.8519 10.3017 11.7816L10.2877 11.7687L9.33865 10.922C9.17706 10.7733 9.18245 10.5234 9.35266 10.3672C9.43476 10.2914 9.54174 10.2483 9.65345 10.2459C9.76517 10.2435 9.87389 10.2821 9.95915 10.3543L10.5969 10.9155L11.9273 9.69501C12.0127 9.62322 12.1214 9.58495 12.233 9.58733C12.3445 9.5897 12.4514 9.63257 12.5338 9.70793C12.704 9.86414 12.7104 10.113 12.5478 10.2627Z" fill="url(#paint0_linear_1406_9698)"/>
</g>
<defs>
<linearGradient id="paint0_linear_1406_9698" x1="7.0021" y1="0.536255" x2="7.0021" y2="13.4632" gradientUnits="userSpaceOnUse">
<stop stop-color="#165DFF"/>
<stop offset="1" stop-color="#2865F0"/>
</linearGradient>
<clipPath id="clip0_1406_9698">
<rect width="14" height="12.927" fill="white" transform="translate(0 0.536499)"/>
</clipPath>
</defs>
</svg>
