<svg width="57" height="68" viewBox="0 0 57 68" fill="none" xmlns="http://www.w3.org/2000/svg">
<g id="&#232;&#175;&#138;&#230;&#150;&#173;">
<path id="Vector" d="M68.5429 64.7264L58.9525 55.1359C64.4122 49.2811 67.7886 41.4148 67.7886 32.7583C67.7886 14.655 53.1336 0 35.0303 0C16.927 0 2.23608 14.655 2.23608 32.7583V33.0816H14.7L21.5247 18.7139C20.5908 17.1335 21.1296 15.122 22.71 14.224C24.2905 13.2901 26.3019 13.8289 27.1999 15.4093C27.7387 16.3432 27.8105 17.4926 27.3436 18.4625L40.957 41.4867L46.2012 30.7109C46.7759 29.5256 47.9612 28.8072 49.2543 28.8431L53.5646 28.9509C55.3965 28.9868 56.8332 30.5313 56.7614 32.3632C56.7255 34.1951 55.2169 35.6318 53.385 35.5959L51.1939 35.5241L44.1897 49.8917C43.6509 50.9693 42.5733 51.6877 41.3521 51.7595H41.2084C40.059 51.7595 38.9455 51.1489 38.3708 50.1432L24.8292 27.1908L19.7646 37.8588C19.2259 39.0082 18.0764 39.7625 16.7834 39.7625H2.99039C6.18719 54.5253 19.2977 65.5884 35.0303 65.5884C41.4239 65.5884 47.3865 63.7565 52.4152 60.5957L62.5803 70.7608C64.2326 72.4131 66.8906 72.4131 68.5429 70.7608C70.1592 69.0367 70.1592 66.3786 68.5429 64.7264Z" fill="url(#paint0_linear_1402_1498)"/>
</g>
<defs>
<linearGradient id="paint0_linear_1402_1498" x1="35.9956" y1="0" x2="35.9956" y2="72" gradientUnits="userSpaceOnUse">
<stop stop-color="#E0EBFE"/>
<stop offset="1" stop-color="#F5F8FE"/>
</linearGradient>
</defs>
</svg>
