<svg width="20" height="21" viewBox="0 0 20 21" fill="none" xmlns="http://www.w3.org/2000/svg">
<g id="Frame 1000008575">
<circle id="Ellipse 22" cx="10" cy="10.5" r="10" fill="#D9E4FF"/>
<path id="Vector" d="M9.43767 16.4305C9.45938 16.4522 9.48515 16.4694 9.51352 16.4812C9.54189 16.493 9.5723 16.499 9.60301 16.499C9.63372 16.499 9.66413 16.493 9.6925 16.4812C9.72087 16.4694 9.74665 16.4522 9.76835 16.4305C9.76835 16.4305 13.0883 13.1065 13.0972 13.0934C13.6693 12.425 14.0377 11.6066 14.1589 10.7352C14.2801 9.86377 14.1489 8.97588 13.7809 8.17674C13.4129 7.3776 12.8235 6.70072 12.0826 6.2263C11.3417 5.75188 10.4803 5.49983 9.60049 5.5C8.72069 5.50017 7.85938 5.75257 7.11864 6.22728C6.3779 6.70199 5.78878 7.3791 5.4211 8.17839C5.05342 8.97767 4.92258 9.86561 5.04411 10.737C5.16564 11.6083 5.53442 12.4266 6.10677 13.0948C6.11708 13.1078 9.43767 16.4305 9.43767 16.4305ZM9.60198 8.00114C9.86163 8.00114 10.1187 8.05229 10.3586 8.15165C10.5985 8.25102 10.8165 8.39666 11.0001 8.58026C11.1837 8.76386 11.3293 8.98183 11.4287 9.22172C11.5281 9.46161 11.5792 9.71872 11.5792 9.97837C11.5792 10.238 11.5281 10.4951 11.4287 10.735C11.3293 10.9749 11.1837 11.1929 11.0001 11.3765C10.8165 11.5601 10.5985 11.7057 10.3586 11.8051C10.1187 11.9045 9.86163 11.9556 9.60198 11.9556C9.34233 11.9556 9.08522 11.9045 8.84533 11.8051C8.60544 11.7057 8.38747 11.5601 8.20387 11.3765C8.02027 11.1929 7.87462 10.9749 7.77526 10.735C7.67589 10.4951 7.62475 10.238 7.62475 9.97837C7.62475 9.71872 7.67589 9.46161 7.77526 9.22172C7.87462 8.98183 8.02027 8.76386 8.20387 8.58026C8.38747 8.39666 8.60544 8.25102 8.84533 8.15165C9.08522 8.05229 9.34233 8.00114 9.60198 8.00114Z" fill="#165DFF"/>
</g>
</svg>
