<svg width="12" height="12" viewBox="0 0 12 12" fill="none" xmlns="http://www.w3.org/2000/svg">
<path id="Vector" d="M11.766 9.51465L9.27611 7.02465C9.12589 6.8748 8.92238 6.79065 8.7102 6.79065C8.49803 6.79065 8.29451 6.8748 8.1443 7.02465L7.57839 7.59055C7.25828 7.91067 6.2217 7.59205 5.31487 6.68513C4.40805 5.7782 4.08883 4.74212 4.40945 4.42161L4.97535 3.8557C5.1252 3.70549 5.20935 3.50197 5.20935 3.2898C5.20935 3.07762 5.1252 2.87411 4.97535 2.72389L2.48535 0.233992C2.33515 0.0841503 2.13166 0 1.9195 0C1.70734 0 1.50384 0.0841503 1.35364 0.233992L0.787737 0.799897C0.369586 1.21805 0.114894 1.76805 0.0305633 2.43469C-0.047665 3.05301 0.0244612 3.74646 0.244841 4.49543C0.686901 5.99998 1.68386 7.58175 3.05126 8.94874C4.41865 10.3157 6.00012 11.3131 7.50417 11.7552C8.05827 11.9181 8.58176 12 9.06693 12C9.23354 12.0003 9.39999 11.9901 9.56531 11.9694C10.232 11.8851 10.782 11.6304 11.2001 11.2123L11.766 10.6464C11.9158 10.4962 12 10.2927 12 10.0805C12 9.86834 11.9158 9.66485 11.766 9.51465Z" fill="white"/>
</svg>
