<svg width="16" height="16" viewBox="0 0 16 16" fill="none" xmlns="http://www.w3.org/2000/svg">
<g id="&#230;&#156;&#139;&#229;&#143;&#139;&#229;&#156;&#136; 1" clip-path="url(#clip0_1446_10835)">
<path id="Vector" d="M8 0C3.57818 0 0 3.57818 0 8C0 12.4218 3.57818 16 8 16C12.4218 16 16 12.4218 16 8C16 3.57818 12.4218 0 8 0ZM9.57091 4.37818C9.89091 4.50909 10.1964 4.69818 10.4727 4.91636C10.5891 5.00364 10.7055 5.10545 10.8073 5.20727C11.0545 5.45455 11.2582 5.73091 11.4327 6.02182C11.4764 6.09455 11.52 6.16727 11.5491 6.24L9.57091 8.20364C9.58545 8.08727 9.57091 4.37818 9.57091 4.37818ZM7.56364 4.10182C7.70909 4.08727 7.85455 4.07273 8.01455 4.07273C8.36364 4.07273 8.71273 4.11636 9.03273 4.20364C9.12 4.23273 9.19273 4.24727 9.28 4.27636V7.06909C9.19273 6.96727 6.54545 4.36364 6.54545 4.36364C6.86545 4.23273 7.2 4.14545 7.56364 4.10182ZM4.91636 5.54182C5.00364 5.42545 5.10545 5.32364 5.20727 5.20727C5.45455 4.96 5.73091 4.75636 6.02182 4.58182C6.09455 4.53818 6.16727 4.49455 6.24 4.46545L8.21818 6.42909C8.10182 6.41455 4.37818 6.42909 4.37818 6.42909C4.52364 6.12364 4.69818 5.81818 4.91636 5.54182ZM4.10182 8.43636C4.08727 8.29091 4.07273 8.14545 4.07273 8C4.07273 7.65091 4.11636 7.31636 4.20364 6.98182C4.23273 6.89455 4.24727 6.82182 4.27636 6.73455H7.06909C6.98182 6.80727 4.36364 9.45455 4.36364 9.45455C4.23273 9.13455 4.14545 8.8 4.10182 8.43636ZM5.52727 11.0691C5.41091 10.9818 5.29455 10.88 5.19273 10.7782C4.94545 10.5309 4.74182 10.2545 4.56727 9.96364C4.52364 9.89091 4.48 9.81818 4.45091 9.74545L6.42909 7.78182C6.41455 7.89818 6.42909 11.6218 6.42909 11.6073C6.10909 11.4618 5.81818 11.2873 5.52727 11.0691ZM8.43636 11.8982C8.29091 11.9127 8.14545 11.9273 8 11.9273C7.65091 11.9273 7.30182 11.8836 6.98182 11.7964C6.89455 11.7673 6.82182 11.7527 6.73455 11.7236V8.93091C6.80727 9.03273 9.46909 11.6364 9.46909 11.6364C9.13454 11.7673 8.8 11.8545 8.43636 11.8982ZM11.0545 10.4727C10.9673 10.5891 10.8655 10.7055 10.7636 10.8073C10.5164 11.0545 10.24 11.2582 9.94909 11.4327C9.87636 11.4764 9.80364 11.52 9.73091 11.5491L7.75273 9.57091C7.86909 9.58545 11.5927 9.57091 11.5927 9.57091C11.4618 9.89091 11.2873 10.1818 11.0545 10.4727ZM11.7964 9.01818C11.7673 9.10545 11.7527 9.17818 11.7236 9.26545H8.91636C9.01818 9.19273 11.6364 6.54545 11.6364 6.54545C11.7673 6.86545 11.8545 7.2 11.8982 7.56364C11.9127 7.70909 11.9273 7.85455 11.9273 8C11.9273 8.36364 11.8836 8.69818 11.7964 9.01818Z" fill="#50B674"/>
</g>
<defs>
<clipPath id="clip0_1446_10835">
<rect width="16" height="16" fill="white"/>
</clipPath>
</defs>
</svg>
